<svg width="18" height="18" viewBox="0 0 18 18" fill="none" xmlns="http://www.w3.org/2000/svg">
<path id="&#239;&#129;&#163;" fill-rule="evenodd" clip-rule="evenodd" d="M2.36336 1.28158C2.72839 0.975285 3.14517 0.84257 3.61372 0.883434L15.9898 1.95323C16.4699 2.00786 16.8601 2.21415 17.1605 2.57209C17.4666 2.93693 17.5991 3.3536 17.558 3.82212L16.4625 16.196C16.434 16.6656 16.2338 17.0564 15.8619 17.3685C15.4969 17.6748 15.0738 17.807 14.5925 17.765L13.1766 17.6511C12.6965 17.5965 12.3063 17.3902 12.0059 17.0322C11.6998 16.6674 11.5673 16.2507 11.6084 15.7822L12.0985 10.1979L4.82546 16.3007C4.46731 16.6012 4.04764 16.7305 3.56643 16.6885C3.08522 16.6466 2.69445 16.4466 2.39409 16.0887L1.2851 14.767C0.984746 14.4091 0.855686 13.9895 0.897917 13.5083C0.940147 13.0271 1.14033 12.6363 1.49847 12.3358L8.77151 6.23298L3.18697 5.74593C2.71842 5.70506 2.33109 5.50222 2.02496 5.13739C1.7246 4.77944 1.58921 4.35933 1.61878 3.87704L1.7438 2.45248C1.7987 1.97239 2.00521 1.5821 2.36336 1.28158Z" fill="white"/>
</svg>
